<?xml version="1.0" encoding="utf-8"?>
<!DOCTYPE svg PUBLIC "-//W3C//DTD SVG 1.1//EN" "http://www.w3.org/Graphics/SVG/1.1/DTD/svg11.dtd">
<svg version="1.1" xmlns="http://www.w3.org/2000/svg" xmlns:xlink="http://www.w3.org/1999/xlink" x="0px" y="0px"
	 width="120px" height="48px" viewBox="-6 -4 120 48" enable-background="new -6 -4 120 48" xml:space="preserve">
<g id="base">
	<g>
		<path fill="#473A30" d="M36.46,13.441h3.404v3.145h0.057c0.171-1.374,1.745-3.488,4.032-3.488c0.374,0,0.367,0,0.768,0.115v3.659
			c0,0-0.168-0.114-1.309-0.114c-3.119,0-3.119,3.891-3.119,6.006v5.405H36.46V13.441z"/>
		
			<linearGradient id="SVGID_1_" gradientUnits="userSpaceOnUse" x1="-465.2461" y1="276.5762" x2="-474.9543" y2="237.5014" gradientTransform="matrix(1 0 0 1 488 -237.0195)">
			<stop  offset="0" style="stop-color:#F9A83D"/>
			<stop  offset="0.1463" style="stop-color:#F8A23C"/>
			<stop  offset="0.3467" style="stop-color:#F79039"/>
			<stop  offset="0.5785" style="stop-color:#F47334"/>
			<stop  offset="0.8319" style="stop-color:#F04B2D"/>
			<stop  offset="0.9879" style="stop-color:#ED2F28"/>
		</linearGradient>
		<path fill="url(#SVGID_1_)" d="M19.238,32.433c-7.465,0-12.104-4.398-12.104-11.476c0-6.963,4.433-11.641,11.032-11.641
			c4.062,0,7.088,1.356,8.99,4.03c1.519,2.133,1.708,5.056,1.708,8.935v7.967C28.866,30.248,25.313,32.433,19.238,32.433
			L19.238,32.433z"/>
		<polygon fill="#473A30" points="93.257,7.863 96.827,7.863 94.698,11.228 91.462,11.228 		"/>
		<path fill="#FFFFFF" d="M24.77,27.34c-1.424,0.772-3.669,1.174-5.763,1.174c-4.941,0-7.818-2.805-7.818-7.638
			c0-4.261,2.296-7.779,6.946-7.779c5.551,0,7.121,3.746,7.121,8.893H14.91c0.174,2.376,1.86,3.718,4.272,3.718
			c2.437,0,4.135-0.483,5.587-1.284V27.34z M21.536,19.36c-0.116-1.857-0.988-3.458-3.168-3.458c-2.179,0-3.285,1.486-3.458,3.458
			H21.536z"/>
		<path fill="#473A30" d="M30.771,21.992V19.36h3.943v2.632H30.771z"/>
		<path fill="#473A30" d="M59.184,27.34c-1.426,0.772-3.67,1.174-5.763,1.174c-4.94,0-7.818-2.805-7.818-7.638
			c0-4.261,2.296-7.779,6.947-7.779c5.55,0,7.122,3.746,7.122,8.893H49.323c0.174,2.376,1.86,3.718,4.273,3.718
			c2.438,0,4.135-0.483,5.59-1.284L59.184,27.34L59.184,27.34z M55.949,19.36c-0.115-1.857-0.989-3.458-3.168-3.458
			c-2.18,0-3.285,1.486-3.458,3.458H55.949z"/>
		<path fill="#473A30" d="M71.616,16.529c-1.192-0.398-2.066-0.627-3.489-0.627c-1.048,0-2.296,0.37-2.296,1.629
			c0,2.345,6.77,0.858,6.77,6.177c0,3.435-3.11,4.806-6.276,4.806c-1.483,0-2.995-0.258-4.417-0.628l0.231-3.147
			c1.22,0.601,2.499,0.972,3.837,0.972c0.986,0,2.557-0.371,2.557-1.8c0-2.889-6.771-0.916-6.771-6.235
			c0-3.175,2.819-4.576,5.87-4.576c1.832,0,3.022,0.285,4.244,0.544L71.616,16.529z"/>
		<path fill="#473A30" d="M76.082,16.245h-1.849v-2.804h1.849v-2.947l3.895-1.229v4.175h3.457v2.804h-3.457v6.862
			c0,1.26,0.348,2.432,1.83,2.432c0.698,0,1.368-0.144,1.773-0.4l0.115,3.03c-0.814,0.229-1.713,0.346-2.877,0.346
			c-3.053,0-4.738-1.861-4.738-4.777v-7.492L76.082,16.245L76.082,16.245z"/>
		<path fill="#473A30" d="M92.759,13.098c4.448,0,7.849,2.945,7.849,7.808c0,4.233-2.876,7.607-7.849,7.607
			c-4.94,0-7.818-3.374-7.818-7.607C84.94,16.042,88.341,13.098,92.759,13.098z M92.759,25.539c2.995,0,3.78-2.632,3.78-5.092
			c0-2.259-1.222-4.375-3.78-4.375c-2.528,0-3.75,2.172-3.75,4.375C89.009,22.879,89.796,25.539,92.759,25.539z"/>
	</g>
</g>
</svg>
